<?xml version="1.0" encoding="utf-8"?>
<!-- Generator: Adobe Illustrator 19.1.1, SVG Export Plug-In . SVG Version: 6.00 Build 0)  -->
<svg version="1.1" xmlns="http://www.w3.org/2000/svg" xmlns:xlink="http://www.w3.org/1999/xlink" x="0px" y="0px"
	 viewBox="-172 295.6 250.3 250.3" style="enable-background:new -172 295.6 250.3 250.3;" xml:space="preserve">
<path d="M-18,295.6c-34.6,0-57.7,24.2-57.7,62.3v28.8h-31.1c-2.3-1.2-4.6,1.2-4.6,4.6v41.5c0,2.3,2.3,4.6,4.6,4.6h31.1v103.8
	c0,2.3,2.3,4.6,4.6,4.6h40.4c2.3,0,4.6-2.3,4.6-4.6V437.5h36.9c2.3,0,4.6-2.3,4.6-4.6v-41.5c0-1.2,0-2.3-1.2-3.5
	c-1.2-1.2-2.3-1.2-3.5-1.2h-35.8v-25.4c0-11.5,2.3-17.3,17.3-17.3h20.8c2.3,0,4.6-2.3,4.6-4.6v-39.2c0-2.3-2.3-4.6-4.6-4.6H-18z"/>
</svg>
