<?xml version="1.0" encoding="utf-8"?>
<!-- Generator: Adobe Illustrator 19.1.1, SVG Export Plug-In . SVG Version: 6.00 Build 0)  -->
<svg version="1.1" xmlns="http://www.w3.org/2000/svg" xmlns:xlink="http://www.w3.org/1999/xlink" x="0px" y="0px"
	 viewBox="-172 295.6 250.3 250.3" style="enable-background:new -172 295.6 250.3 250.3;" xml:space="preserve">
<path d="M-25.2,499.2c-4.5-2.3-8-6.8-9.1-10.2c-2.3-4.5-1.1-12.5-1.1-27.3V398h58v-44.4h-58v-58h-36.4c-1.1,12.5-4.5,23.9-9.1,31.8
	c-3.4,8-9.1,15.9-17.1,21.6c-6.8,5.7-18.2,10.2-28.4,13.6V398h34.1v87.6c0,11.4,1.1,20.5,3.4,26.2c2.3,5.7,6.8,11.4,12.5,17.1
	c5.7,5.7,13.6,9.1,22.7,12.5c10.2,2.3,17.1,4.5,28.4,4.5c10.2,0,19.3-1.1,28.4-3.4c9.1-2.3,18.2-5.7,29.6-10.2v-39.8
	c-12.5,8-25,12.5-37.5,12.5C-12.7,504.9-19.6,502.6-25.2,499.2z"/>
</svg>
