<?xml version="1.0" encoding="utf-8"?>
<!-- Generator: Adobe Illustrator 19.1.1, SVG Export Plug-In . SVG Version: 6.00 Build 0)  -->
<svg version="1.1" xmlns="http://www.w3.org/2000/svg" xmlns:xlink="http://www.w3.org/1999/xlink" x="0px" y="0px"
	 viewBox="-172 295.6 250.3 250.3" style="enable-background:new -172 295.6 250.3 250.3;" xml:space="preserve">
<path d="M39.6,424.2H20.3v19.3H6.6v-19.3h-19.3v-13.7H6.6v-19.3h13.7v19.3h19.3V424.2z M-26.4,431c-4.6,28.4-25,44.4-52.3,44.4
	c-30.7,0-55.7-25-55.7-55.7s25-55.7,55.7-55.7c14.8,0,27.3,5.7,37.5,14.8l-15.9,15.9c-5.7-4.6-12.5-8-21.6-8
	c-18.2,0-31.9,15.9-31.9,34.1s14.8,33,33,33c14.8,0,26.2-6.8,29.6-21.6h-30.7v-22.8h52.3c1.1,3.4,1.1,6.8,1.1,11.4
	C-25.2,424.2-25.2,427.6-26.4,431z M-172,295.6v250.3H78.3V295.6H-172z"/>
</svg>
