<?xml version="1.0" encoding="utf-8"?>
<!-- Generator: Adobe Illustrator 19.1.1, SVG Export Plug-In . SVG Version: 6.00 Build 0)  -->
<svg version="1.1" xmlns="http://www.w3.org/2000/svg" xmlns:xlink="http://www.w3.org/1999/xlink" x="0px" y="0px"
	 viewBox="-172 295.6 250.3 250.3" style="enable-background:new -172 295.6 250.3 250.3;" xml:space="preserve">
<path d="M-140.1,295.6H46.4c17.1,0,31.9,12.5,31.9,31.9V514c0,19.3-14.8,31.9-31.9,31.9h-186.6c-17.1,0-31.9-12.5-31.9-31.9V327.4
	C-172,308.1-157.2,295.6-140.1,295.6z M10,322.9c-5.7,0-11.4,4.6-11.4,11.4v27.3c0,5.7,4.6,11.4,11.4,11.4h28.4
	c5.7,0,11.4-4.6,11.4-11.4v-27.3c0-5.7-4.6-11.4-11.4-11.4H10z M49.9,401.4H28.2c2.3,6.8,3.4,13.7,3.4,21.6
	c0,42.1-35.3,75.1-77.4,75.1c-43.2,0-77.4-34.1-77.4-75.1c0-8,1.1-14.8,3.4-21.6h-22.8v105.8c0,5.7,4.6,10.2,10.2,10.2H41.9
	c5.7,0,10.2-4.6,10.2-10.2L49.9,401.4L49.9,401.4z M-46.8,371.8c-27.3,0-50.1,21.6-50.1,48.9c0,27.3,22.8,48.9,50.1,48.9
	S3.2,448,3.2,420.7S-18.4,371.8-46.8,371.8z"/>
</svg>
