<?xml version="1.0" encoding="utf-8"?>
<!-- Generator: Adobe Illustrator 19.1.1, SVG Export Plug-In . SVG Version: 6.00 Build 0)  -->
<svg version="1.1" id="Layer_1" xmlns="http://www.w3.org/2000/svg" xmlns:xlink="http://www.w3.org/1999/xlink" x="0px" y="0px"
	 viewBox="-172 295.6 250.3 250.3" style="enable-background:new -172 295.6 250.3 250.3;" xml:space="preserve">
<path d="M68.6,503.8l-83.1-83.1l83.1-83.1c9-9,9-23.4,0-32.4s-23.4-9-32.4,0l-83.1,83.1l-83.1-83.1c-9-9-23.4-9-32.4,0
	c-9,9-9,23.4,0,32.4l83.1,83.1l-83.1,83.1c-9,9-9,23.4,0,32.4c9,9,23.4,9,32.4,0l83.1-83.1l83.1,83.1c9,9,23.4,9,32.4,0
	C77.5,527.2,77.5,512.7,68.6,503.8z"/>
</svg>
