<?xml version="1.0" encoding="utf-8"?>
<!-- Generator: Adobe Illustrator 19.1.1, SVG Export Plug-In . SVG Version: 6.00 Build 0)  -->
<svg version="1.1" xmlns="http://www.w3.org/2000/svg" xmlns:xlink="http://www.w3.org/1999/xlink" x="0px" y="0px"
	 viewBox="-172 295.6 250.3 250.3" style="enable-background:new -172 295.6 250.3 250.3;" xml:space="preserve">
<path d="M78.3,343.4c-9.3,3.7-19.5,6.5-29.7,8.3c10.2-6.5,18.5-16.7,22.2-28.7c-10.2,5.6-21.3,10.2-32.4,12
	c-9.3-10.2-23.2-16.7-38-16.7c-28.7,0-51.9,23.2-51.9,51.9c0,3.7,0,8.3,0.9,12c-41.7-1.9-79.7-22.2-104.7-53.7
	c-4.6,7.4-7.4,16.7-7.4,25.9c0,17.6,9.3,33.4,23.2,42.6c-8.3,0-16.7-2.8-23.2-6.5v0.9c0,25,17.6,45.4,41.7,50
	c-4.6,0.9-9.3,1.9-13.9,1.9c-3.7,0-6.5,0-9.3-0.9c6.5,20.4,25.9,35.2,48.2,36.1c-17.6,13.9-39.8,22.2-63.9,22.2c-3.7,0-8.3,0-12-0.9
	c22.2,14.8,49.1,23.2,77.8,23.2c94.5,0,146.4-78.8,146.4-146.4v-6.5C62.5,362.8,70.8,353.6,78.3,343.4"/>
</svg>
