<?xml version="1.0" encoding="utf-8"?>
<svg version="1.1" xmlns="http://www.w3.org/2000/svg" xmlns:xlink="http://www.w3.org/1999/xlink" x="0px" y="0px"
	 viewBox="0 0 277 56.5" style="enable-background:new 0 0 277 56.5;" xml:space="preserve">
<style type="text/css">
	.st0{fill:#14391F;enable-background:new    ;}
	.st1{fill:#14391F;}
	.st2{opacity:0.93;fill:#14391F;enable-background:new    ;}
	.st3{fill:#2D5234;}
	.st4{fill:#8DC63F;}
	.st5{fill:#FFFFFF;}
	.st6{fill:#EB0029;}
</style>
<path class="st0" d="M173.4,0.7l1.8-0.7l4.3,4.8L179,6.1l-8.5,0.8L173.4,0.7L173.4,0.7z"/>
<path class="st0" d="M125.2,32.6l6.1,5.9l-5.8,2.7l-2.5-2.1L125.2,32.6L125.2,32.6z"/>
<path class="st0" d="M236.7,16l9.6,3.7l-1.8,6.2l-9.9-4.6L236.7,16L236.7,16z"/>
<path class="st0" d="M202.4,19.1l-14.6,18.6l-4.3-2.6l14.4-20.1L202.4,19.1L202.4,19.1z M199.2,37.3l17.5-21l5.5,2.6l-16.3,18.6
	L199.2,37.3L199.2,37.3z"/>
<path class="st0" d="M102.7,40.4l33.9-18.3l1.7,5.9l-28.7,14.3L102.7,40.4L102.7,40.4z M126.6,35l13.2-5l-1.6,5.3l-9.9,4.6L126.6,35
	L126.6,35z"/>
<path class="st0" d="M152.5,35.8l8.8,3.7l-9.5,6.2l-2.5-2.5L152.5,35.8L152.5,35.8z"/>
<path class="st0" d="M88.5,16.8l9.8,7.1l-2.1,6.2l-10.9-7.2L88.5,16.8L88.5,16.8z M98.3,23.9l-5.6,15.8L88.6,34l5.1-13.1
	C93.7,20.9,98.3,23.9,98.3,23.9z M149.4,22.6L142,43l-4.1-4.4l6.5-19.3L149.4,22.6z M137.9,38.7L159.4,17l4.1,4.4L142,43L137.9,38.7
	L137.9,38.7z M163.6,21.4l-6.7,20.8l-7.6,1L159.4,17L163.6,21.4L163.6,21.4z M109.3,21.2l-6.6,19.1l-3.9-3.9l4.7-16.9L109.3,21.2
	L109.3,21.2z M104.8,33.9l8.2,6.6l-3.4,1.6l-7-1.7L104.8,33.9z"/>
<path class="st0" d="M103.5,19.7l13.1,3.1l1.7,5.9l-16.5-3.1C101.8,25.5,103.5,19.7,103.5,19.7z"/>
<path class="st0" d="M130,20.3l-6.6,19.1l-3.9-3.9l4.7-16.9C124.2,18.7,130,20.3,130,20.3z M130,20.3l6.5,1.8l1.7,5.9l-10.1-2.3
	L130,20.3L130,20.3z M116.6,22.7l1.7,5.9L93.4,41.4c0.2-0.6,0.2-0.6,0.2-0.6L93,40.6l0.2-0.6l-0.5-0.2l0.2-0.6l-0.6-0.2l0.2-0.6
	l-0.5-0.2l0.2-0.5l-0.6-0.2l0.2-0.6L91,37L116.6,22.7L116.6,22.7z M90.2,26.1l-4.5,8.7l-0.2-0.6l-0.7,0.2l-0.2-0.7L84,33.9l-0.2-0.6
	l-0.7,0.2l-0.2-0.7L82.2,33L82,32.4l-0.7,0.2l-0.2-0.7l-0.7,0.2l4.9-9.3L90.2,26.1L90.2,26.1z"/>
<path class="st0" d="M144.2,19.4l5.2,3.2l-8,2.9l0-0.1l-0.4,0.1l0.3-0.6l-0.6-0.3L141,24l-0.6-0.3l0.3-0.6l-0.6-0.3l0.3-0.6
	l-0.6-0.3l0.3-0.6l-0.6-0.3l0.3-0.6l-0.6-0.3L144.2,19.4L144.2,19.4z"/>
<path class="st0" d="M205.8,37.5l-6.6-0.3l14.3-30.8c0.2,0.7,0.3,0.7,0.3,0.7l0.7-0.2l0.2,0.7l0.6-0.2l0.2,0.6l0.7-0.2l0.2,0.7
	l0.6-0.2l0.2,0.6l0.7-0.2l0.2,0.7l0.6-0.2L205.8,37.5L205.8,37.5z"/>
<path class="st0" d="M179.5,4.8l-13,33.7l-5.3-2.9l14-35.6C175.2,0,179.5,4.8,179.5,4.8z"/>
<path class="st0" d="M161.2,35.6l19.1-10.2l-3.4,7.7l-10.5,5.4L161.2,35.6L161.2,35.6z"/>
<path class="st0" d="M222.3,19.2l2.1,5.7l-7-0.7l-3.4-4.9l2.6-3L222.3,19.2L222.3,19.2z M224.3,24.8L217,37.1l-3.2-4l3.5-9
	L224.3,24.8L224.3,24.8z M194.2,20.9l-5.7,1.6l-3-5l10.8-4l1.6,1.4L194.2,20.9L194.2,20.9z"/>
<path class="st0" d="M188.8,22.5L183.5,35l-5.1-2.3l7.1-15.1L188.8,22.5L188.8,22.5z M185.7,28.2l7.6,2.5l-5.5,6.9l-4.3-2.6
	L185.7,28.2L185.7,28.2z"/>
<path class="st0" d="M266.7,2.5L255,32.1l-7.7,3.8l13.8-35.4L266.7,2.5z M261.2,0.5l5.5,2l-1.8,3.9l-9.4,0.4L261.2,0.5L261.2,0.5z"
	/>
<path class="st0" d="M206.1,36.2l40.2-16.5l-1.8,6.8l-36.4,14.1L206.1,36.2z M237.1,16.2l-8.3,21.9l-4-5.1l5.2-18.4L237.1,16.2
	L237.1,16.2z"/>
<path class="st0" d="M231.3,30.7l10,6.2l-3.6,1.9l-8.9-0.7L231.3,30.7L231.3,30.7z"/>
<path class="st0" d="M228.5,37.7l21.8-9.9l-3,8.1l-9.6,2.9L228.5,37.7L228.5,37.7z"/>
<path class="st0" d="M249.4,27.5l8.9,7.9l-0.8,0.2l0.1,0.7l-0.8,0.1l0.1,0.7l-0.7,0.1l0.1,0.7l-0.7,0.1l0.1,0.7l-0.7,0.1l0.1,0.7
	l-0.7,0.1l0.1,0.7l-7.9-4.9L249.4,27.5L249.4,27.5z"/>
<path class="st0" d="M193.8,41.8l2.2-23c0.5,0.6,0.5,0.6,0.5,0.6l0.5-0.5l0.5,0.5l0.5-0.5l0.5,0.5l0.6-0.5l0.5,0.5l0.5-0.5l0.5,0.5
	l0.5-0.5l0.5,0.5l0.5-0.5l-2.5,18L193.8,41.8L193.8,41.8z"/>
<path class="st1" d="M269,2.4h-1.3V1.5h3.6v0.9h-1.3v3.8H269L269,2.4L269,2.4z M275.9,4.4c0-0.6,0-1.3,0-1.9h0
	c-0.2,0.6-0.4,1.3-0.5,1.8l-0.6,1.8h-0.8l-0.5-1.8c-0.2-0.6-0.3-1.2-0.4-1.9h0c0,0.6,0,1.4-0.1,2l-0.1,1.8h-1l0.3-4.7h1.4L274,3
	c0.2,0.5,0.3,1.1,0.4,1.7h0c0.1-0.5,0.3-1.2,0.4-1.7l0.5-1.6h1.4l0.3,4.7h-1L275.9,4.4L275.9,4.4z"/>
<path class="st0" d="M62.1,37.7l12.6-11.3l3.7,4.6L67,40.8C67,40.8,62.1,37.7,62.1,37.7z"/>
<path class="st0" d="M70.9,9.4L55.2,37.9l-5.2-3L67.1,4.2L70.9,9.4z M67.1,4.2l13.3-1.1l0.7,6l-10.5,1.2L67.1,4.2L67.1,4.2z"/>
<path class="st2" d="M81.1,3l1.6,16.3l-6.5,4.4l-2-20.1L81.1,3z"/>
<path class="st0" d="M75.5,15.9l12.5-4.8l-2.7,6.5l-9,6.1L75.5,15.9L75.5,15.9z"/>
<path class="st0" d="M80.3,29.2L66.7,56.5l-0.3-0.6l-0.7,0.2l-0.2-0.7L65,55.7L64.7,55l-0.7,0.2l-0.2-0.7l-0.6,0.2L63,54.2l-0.7,0.2
	L62,53.8L61.3,54l13.3-27.6L80.3,29.2z M64,23.8l18.6-0.1l-2.3,5.5l-16.1,0l0.4-0.5l-0.5-0.4l0.4-0.5l-0.4-0.4l0.4-0.4l-0.5-0.4
	l0.4-0.5l-0.5-0.4l0.4-0.5L64,24.7l0.4-0.5L64,23.8L64,23.8L64,23.8z M53.4,30.9l14.4,9.2l-4.2,3.4l-12.6-8.1l0.2-0.1L51,34.8
	l0.6-0.1L51.5,34l0.6-0.1L52,33.3l0.6-0.1l-0.1-0.6l0.6-0.1l-0.1-0.6l0.6-0.1L53.4,30.9L53.4,30.9L53.4,30.9L53.4,30.9L53.4,30.9z"
	/>
<g>
	<path class="st3" d="M37.9,15.5c1.7-6,3.6-9.5,3.6-9.5l-10.4,4.9l0.7-2.2l-9.3,4.7L22,15.1l-8.1,3.8c-5.4,8-12.7,16.7-13.4,17.6
		L0,38.9l8.4-3.5c-1.8,5-4,9.2-5.4,11.8l-0.4,2.4l14.9-7c1.2-0.6,2.4-1.2,3.3-2.2c0.1-0.1,0.2-0.2,0.3-0.3c0.5,0.1,0.9,0,1.3-0.1
		c0.5-0.1,0.9-0.3,1.2-0.4l0,0l0,0l21.8-10.3c11.8-16.3,18-23.7,18-23.7l0.8-2.3L37.9,15.5z"/>
	<path class="st4" d="M1.1,36.7l9-3.7c0,0-4.2,10.8-6.4,14.4L17.1,41c1.2-0.6,2.2-1.2,3.1-1.9c0.2-0.2,0.4-0.4,0.6-0.6
		c0.1,0,0.1,0,0.1,0c0.5,0.2,1,0.1,1.4,0.1c0.4-0.1,0.7-0.3,1-0.4l0,0L44.7,28c0,0,10.9-15.5,17.9-23.4l-25.8,12
		c1.9-6.9,3.3-9.4,3.3-9.4L30,11.9l0.7-2.1l-7.3,3.7l-0.6,1.7l-8.3,3.9C14.6,19.2,7.6,29.6,1.1,36.7"/>
	<path class="st5" d="M15.2,19.5l8.4-4l0.6-1.7l5.2-2.6l-0.7,1.9l9.8-4.6c0,0-1.1,2.7-2.9,9.2L59.7,6.5c0,0-3.8,3.6-15.4,20.4L23,37
		c-0.6,0.3-1.1,0.5-1.8,0.3c0,0,0,0-0.1,0c-0.2-0.1-0.4-0.2-0.5-0.3c-0.3,0.4-0.6,0.8-0.9,1.1c-0.8,0.7-1.7,1.3-2.9,1.8l-11,5.1
		c2.3-3.8,5.8-14,5.8-14l-7.3,3.1C7.2,31.2,15.2,19.5,15.2,19.5"/>
	<path class="st3" d="M25,14.3l2.6-1.3L27,14.9l2.1-1l-0.5,1.7l-2.1,1l-1.4,4.6c-0.2,0.6-0.2,0.7,0.3,0.5l0.9-0.4
		c0.5-0.3,0.9-0.6,1-0.8l-0.8,2.1L23.3,24c-0.8,0.4-1.3,0.2-0.7-2l1.3-4.3l-0.8,0.4l0.5-1.7l0.8-0.4L25,14.3z"/>
	<path class="st3" d="M32.6,12.3l-0.2,0.9l0,0c0.3-0.5,0.6-1,0.9-1.2l2.1-1c1.2-0.6,1.3,0.4,0.7,2.4L35,16.8
		c-0.4,1.2-0.4,1.5-0.4,1.8l-3.1,1.5c0.3-0.5,0.5-0.9,0.9-2.1l1.3-4.3c0.2-0.5,0.1-0.7-0.2-0.5l-0.9,0.5c-0.3,0.2-0.5,0.4-0.7,0.9
		l-1.3,4.3c-0.4,1.2-0.4,1.5-0.4,1.8l-3.1,1.4c0.3-0.5,0.5-0.9,0.9-2.1l1.5-4.7c0.4-1.2,0.4-1.5,0.4-1.8L32.6,12.3z"/>
	<path class="st3" d="M11.5,28c-0.3,0.5-0.7,1.1-0.9,1.4c-0.2,0.3-0.3,0.5-0.3,0.7l-2.4,1.1c0.8-0.9,1.6-2.1,2.1-2.7l5.7-8.3
		l2.7-1.2l-2.1,6.6l0,0l4.1-7.5l2.7-1.3L21,23.3c-0.4,1.3-0.5,1.5-0.5,2.1l-3,1.4c0.2-0.3,0.3-0.5,0.4-0.8c0.2-0.5,0.3-0.8,0.4-1.1
		l1.2-3.7l0,0L16,27.5l-2.9,1.4l1.7-5.5l0,0L11.5,28z"/>
	<path class="st6" d="M12.5,32.3c0.7-1.6,0.8-2.4,0.7-2.9l7.6-3.5c2.2-1,2.5,0.1,1.3,3.6l-1.7,5.6c-0.5,1.6-1.8,2.8-4,3.8l-8.1,3.8
		c0.4-0.8,0.7-1.5,1.3-3.2L12.5,32.3z M13.8,37.8l2.1-1c0.7-0.3,0.8-0.6,1.2-1.8l1.4-4.3c0.4-1.2,0.4-1.4-0.3-1.1l-1.7,0.8
		L13.8,37.8z"/>
	<path class="st6" d="M25.8,30.3l-0.4,1.2c-0.3,0.9-0.2,1.2,0.5,0.9l3.7-1.7c0.7-0.4,1.1-0.6,1.9-1.4l-1.2,3.2L22.6,36
		c-1.7,0.8-1.8-0.2-1-2.9l1.6-5.1c0.8-2.7,1.7-4.1,3.4-4.9l5.8-2.7c1.7-0.8,1.8,0.2,1,2.9l-1.2,4L25.8,30.3z M29.2,26.6l0.6-1.7
		c0.3-0.7,0.2-1-0.2-0.8L28,24.8c-0.4,0.2-0.7,0.6-0.9,1.3l-0.6,1.7L29.2,26.6z"/>
	<path class="st6" d="M49.9,14.6c0.5-0.7,1.1-1.6,1.3-2.1c0.2-0.4,0.4-0.8,0.5-1.1l3.8-1.8c-1.2,1.3-2.6,3.1-3.2,4.1l-8.6,12.4
		L39,28.3l3.1-9.8h-0.1L35.4,30l-4,1.9l3-9.6c0.6-1.9,0.7-2.3,0.7-3.1l4.5-2.1c-0.2,0.4-0.4,0.7-0.6,1.1c-0.3,0.7-0.5,1.2-0.6,1.6
		l-1.7,5.5h0.1l5.6-9.6l5.3-2.5l-2.6,8.2h0.1L49.9,14.6z"/>
</g>
</svg>
